<svg width="421" height="416" viewBox="0 0 421 416" fill="none" xmlns="http://www.w3.org/2000/svg">
<g clip-path="url(#clip0_292_75)">
<path d="M211.069 406C246.577 405.998 281.288 395.467 310.81 375.738C340.333 356.008 363.342 327.968 376.928 295.162C390.514 262.355 394.067 226.257 387.137 191.432C380.207 156.607 363.106 124.618 337.996 99.5125C312.885 74.4066 280.894 57.3106 246.068 50.3865C211.241 43.4623 175.144 47.0211 142.34 60.6126C109.536 74.2042 81.4993 97.2181 61.7751 126.744C42.051 156.27 31.5253 190.982 31.5293 226.49C31.5346 274.103 50.453 319.763 84.123 353.428C117.793 387.092 163.457 406.003 211.069 406V406Z" fill="url(#paint0_linear_292_75)"/>
<path fill-rule="evenodd" clip-rule="evenodd" d="M207.5 312.43C207.5 308.868 208.915 305.452 211.434 302.934C213.952 300.415 217.368 299 220.93 299H298.84C309.092 298.869 319.121 301.988 327.49 307.91C335.32 313.66 341.54 322.72 341.54 333.91C341.54 345.1 335.32 354.2 327.54 359.96C319.17 365.888 309.136 369.011 298.88 368.88H113.72C111.926 368.929 110.141 368.618 108.469 367.965C106.798 367.313 105.274 366.332 103.988 365.08C102.702 363.829 101.679 362.332 100.981 360.679C100.283 359.026 99.9238 357.249 99.9238 355.455C99.9238 353.661 100.283 351.884 100.981 350.231C101.679 348.578 102.702 347.081 103.988 345.83C105.274 344.578 106.798 343.597 108.469 342.945C110.141 342.292 111.926 341.981 113.72 342.03H298.84C303.368 342.15 307.821 340.857 311.58 338.33C314.35 336.33 314.68 334.58 314.68 333.91C314.68 333.24 314.35 331.54 311.59 329.51C307.827 326.983 303.371 325.69 298.84 325.81L220.14 323.18C212.73 323.22 207.5 319.84 207.5 312.43Z" fill="url(#paint1_linear_292_75)"/>
<path fill-rule="evenodd" clip-rule="evenodd" d="M329.71 152.07C330.569 148.857 332.465 146.017 335.103 143.992C337.742 141.967 340.974 140.869 344.3 140.87H405.37C409.375 140.87 413.216 142.461 416.048 145.293C418.879 148.124 420.47 151.965 420.47 155.97C420.47 159.975 418.879 163.816 416.048 166.647C413.216 169.479 409.375 171.07 405.37 171.07H355.89L338.27 236.92C337.758 238.836 336.874 240.632 335.667 242.206C334.461 243.781 332.956 245.102 331.239 246.094C329.522 247.087 327.627 247.732 325.661 247.992C323.694 248.252 321.696 248.122 319.78 247.61C317.864 247.098 316.068 246.213 314.494 245.007C312.92 243.801 311.599 242.296 310.606 240.579C309.613 238.862 308.969 236.966 308.709 235C308.448 233.034 308.578 231.036 309.09 229.12L329.71 152.07Z" fill="url(#paint2_linear_292_75)"/>
<path d="M316.66 95.56H133.46L119 127.15H302.2L316.66 95.56Z" fill="url(#paint3_linear_292_75)"/>
<path d="M224.369 90.78H104.539L118.999 127.15H238.819L224.369 90.78Z" fill="url(#paint4_linear_292_75)"/>
<path d="M319.11 90.78H253.28L238.82 127.15H304.64L319.11 90.78Z" fill="url(#paint5_linear_292_75)"/>
<path d="M304.65 127.14H184.83V247H304.65V127.14Z" fill="url(#paint6_linear_292_75)"/>
<path d="M238.83 127.14H119V247H238.83V127.14Z" fill="url(#paint7_linear_292_75)"/>
<path d="M158.441 415.35C164.91 415.348 171.233 413.428 176.611 409.833C181.988 406.237 186.179 401.128 188.654 395.151C191.128 389.174 191.774 382.597 190.511 376.252C189.248 369.908 186.132 364.081 181.557 359.507C176.982 354.933 171.153 351.819 164.808 350.558C158.464 349.296 151.887 349.945 145.911 352.421C139.934 354.897 134.826 359.089 131.233 364.468C127.639 369.847 125.721 376.171 125.721 382.64C125.721 386.936 126.567 391.191 128.212 395.16C129.856 399.129 132.266 402.735 135.305 405.773C138.343 408.811 141.95 411.22 145.92 412.863C149.89 414.506 154.144 415.351 158.441 415.35V415.35Z" fill="#DF8A5A"/>
<path d="M320.79 181.36H95.3495C78.4495 181.36 65.9695 195.7 69.7895 210.69L88.1595 298.89C90.9195 309.72 101.51 317.4 113.72 317.4L312.49 330.26L346.4 210.73C354.75 186.26 337.72 181.36 320.79 181.36Z" fill="url(#paint8_linear_292_75)"/>
<path d="M157.53 399.13C160.782 399.132 163.962 398.169 166.667 396.364C169.372 394.558 171.481 391.99 172.726 388.986C173.972 385.982 174.298 382.675 173.664 379.485C173.03 376.295 171.464 373.365 169.164 371.065C166.865 368.765 163.934 367.199 160.744 366.565C157.554 365.931 154.248 366.258 151.244 367.503C148.239 368.749 145.672 370.858 143.866 373.563C142.06 376.268 141.098 379.448 141.1 382.7C141.102 387.057 142.834 391.234 145.915 394.315C148.995 397.396 153.173 399.127 157.53 399.13Z" fill="url(#paint9_linear_292_75)"/>
<path d="M234.82 249.17C236.051 249.179 237.269 249.432 238.403 249.913C239.536 250.395 240.563 251.096 241.425 251.976C242.287 252.856 242.965 253.898 243.423 255.042C243.88 256.186 244.107 257.408 244.09 258.64L243.25 327.05C243.215 329.541 242.197 331.918 240.418 333.662C238.638 335.406 236.241 336.376 233.75 336.36V336.36C232.517 336.351 231.299 336.098 230.165 335.617C229.031 335.135 228.003 334.434 227.141 333.554C226.278 332.674 225.598 331.633 225.14 330.489C224.681 329.345 224.454 328.122 224.47 326.89L225.31 258.49C225.344 255.996 226.363 253.616 228.144 251.871C229.926 250.125 232.325 249.154 234.82 249.17V249.17Z" fill="#D87D4A"/>
<path d="M388.929 194.44V197.57C388.936 198.596 388.74 199.614 388.352 200.564C387.964 201.514 387.392 202.379 386.669 203.107C385.946 203.836 385.086 204.414 384.139 204.809C383.192 205.205 382.176 205.409 381.149 205.41L66.0892 206.22C64.0123 206.223 62.0185 205.404 60.5424 203.943C59.0664 202.482 58.2277 200.497 58.2092 198.42V195.29C58.2013 194.262 58.3969 193.243 58.7849 192.29C59.1728 191.338 59.7454 190.473 60.4695 189.743C61.1937 189.013 62.0551 188.434 63.0042 188.039C63.9532 187.643 64.9712 187.44 65.9992 187.44L381.059 186.63C383.136 186.63 385.129 187.451 386.603 188.914C388.077 190.377 388.913 192.363 388.929 194.44V194.44Z" fill="#C26D3D"/>
<path d="M287.899 249.4C289.132 249.409 290.35 249.662 291.484 250.143C292.618 250.625 293.646 251.326 294.508 252.206C295.371 253.086 296.051 254.127 296.509 255.271C296.968 256.415 297.195 257.638 297.179 258.87L296.339 327.27C296.305 329.764 295.286 332.144 293.505 333.889C291.723 335.635 289.324 336.606 286.829 336.59C285.598 336.58 284.38 336.326 283.247 335.844C282.113 335.362 281.086 334.661 280.224 333.781C279.361 332.902 278.681 331.86 278.223 330.717C277.764 329.574 277.535 328.352 277.549 327.12L278.399 258.71C278.431 256.218 279.448 253.839 281.228 252.095C283.009 250.35 285.407 249.381 287.899 249.4V249.4Z" fill="#D87D4A"/>
<path d="M181.739 249C182.971 249.01 184.188 249.264 185.321 249.746C186.454 250.228 187.481 250.929 188.342 251.809C189.203 252.689 189.882 253.73 190.34 254.873C190.798 256.017 191.025 257.239 191.009 258.47L190.169 326.87C190.138 329.364 189.119 331.744 187.337 333.489C185.555 335.234 183.154 336.201 180.659 336.18C179.429 336.171 178.212 335.919 177.079 335.438C175.946 334.957 174.919 334.256 174.058 333.377C173.196 332.498 172.517 331.457 172.059 330.315C171.601 329.172 171.374 327.951 171.389 326.72L172.229 258.31C172.261 255.816 173.28 253.436 175.062 251.691C176.844 249.946 179.245 248.979 181.739 249V249Z" fill="#D87D4A"/>
<path d="M128.079 249C129.311 249.009 130.529 249.262 131.664 249.743C132.798 250.225 133.826 250.926 134.688 251.806C135.55 252.686 136.23 253.727 136.689 254.871C137.147 256.015 137.375 257.238 137.359 258.47L136.519 326.87C136.487 329.364 135.469 331.744 133.687 333.489C131.904 335.234 129.503 336.201 127.009 336.18C125.778 336.171 124.561 335.919 123.428 335.438C122.295 334.957 121.269 334.256 120.407 333.377C119.546 332.498 118.867 331.457 118.409 330.315C117.951 329.172 117.723 327.951 117.739 326.72L118.579 258.31C118.608 255.817 119.624 253.437 121.405 251.692C123.186 249.947 125.586 248.979 128.079 249V249Z" fill="#D87D4A"/>
<path fill-rule="evenodd" clip-rule="evenodd" d="M276.259 4.83001C273.979 0.830009 269.729 -1.06999 266.779 0.620008C263.829 2.31001 263.299 6.91001 265.579 10.92L265.779 11.26C264.914 11.5201 264.135 12.0099 263.526 12.6773C262.917 13.3446 262.5 14.1646 262.319 15.05C261.609 17.65 262.589 20.18 264.499 20.7C266.409 21.22 268.549 19.55 269.259 16.95C269.443 16.2728 269.517 15.5706 269.479 14.87C270.308 15.3913 271.257 15.6893 272.235 15.7349C273.213 15.7804 274.186 15.572 275.059 15.13C275.777 14.6871 276.382 14.0835 276.826 13.3667C277.27 12.65 277.542 11.8397 277.619 11C278.028 11.2083 278.457 11.3757 278.899 11.5C281.499 12.21 284.029 11.23 284.559 9.32001C285.089 7.41001 283.399 5.32001 280.799 4.56001C280.067 4.32976 279.294 4.25794 278.532 4.34932C277.77 4.4407 277.036 4.69318 276.379 5.09001L276.259 4.83001Z" fill="url(#paint10_linear_292_75)"/>
<path fill-rule="evenodd" clip-rule="evenodd" d="M140.901 20.53C140.317 21.1939 139.58 21.7063 138.755 22.0233C137.929 22.3403 137.039 22.4524 136.161 22.35C135.146 22.1331 134.209 21.6473 133.447 20.9435C132.686 20.2397 132.127 19.3439 131.831 18.35C131.451 18.8724 130.989 19.3285 130.461 19.7C128.291 21.29 125.571 21.29 124.401 19.7C123.231 18.11 124.041 15.51 126.221 13.92C126.926 13.331 127.779 12.9475 128.688 12.8117C129.596 12.6758 130.524 12.7929 131.371 13.15C132.091 8.61001 135.371 5.36001 138.721 5.88001C142.071 6.40001 144.151 10.38 143.551 14.88C144.293 14.9978 145.003 15.2662 145.638 15.6686C146.272 16.071 146.818 16.599 147.241 17.22C148.831 19.39 148.821 22.1 147.241 23.28C145.661 24.46 143.041 23.64 141.451 21.46C141.241 21.1663 141.057 20.8551 140.901 20.53V20.53Z" fill="url(#paint11_linear_292_75)"/>
<path d="M18.9999 197.94C19.1717 197.221 19.5809 196.58 20.1615 196.122C20.7421 195.664 21.4602 195.414 22.1999 195.414C22.9395 195.414 23.6576 195.664 24.2382 196.122C24.8188 196.58 25.2281 197.221 25.3999 197.94L28.1199 209.23C28.2626 209.819 28.5649 210.358 28.9936 210.786C29.4223 211.215 29.9607 211.517 30.5499 211.66L41.8399 214.38C42.5593 214.552 43.1998 214.961 43.6581 215.542C44.1164 216.122 44.3656 216.84 44.3656 217.58C44.3656 218.32 44.1164 219.038 43.6581 219.618C43.1998 220.199 42.5593 220.608 41.8399 220.78L30.5499 223.51C29.9605 223.649 29.4212 223.949 28.9922 224.376C28.5631 224.803 28.2611 225.341 28.1199 225.93L25.3999 237.22C25.2281 237.939 24.8188 238.58 24.2382 239.038C23.6576 239.497 22.9395 239.746 22.1999 239.746C21.4602 239.746 20.7421 239.497 20.1615 239.038C19.5809 238.58 19.1717 237.939 18.9999 237.22L16.2799 225.93C16.1386 225.341 15.8366 224.803 15.4076 224.376C14.9785 223.949 14.4393 223.649 13.8499 223.51L2.51988 220.78C1.80045 220.608 1.15991 220.199 0.701649 219.618C0.243387 219.038 -0.00585937 218.32 -0.00585938 217.58C-0.00585937 216.84 0.243387 216.122 0.701649 215.542C1.15991 214.961 1.80045 214.552 2.51988 214.38L13.8099 211.66C14.399 211.517 14.9375 211.215 15.3661 210.786C15.7948 210.358 16.0971 209.819 16.2399 209.23L18.9999 197.94Z" fill="url(#paint12_linear_292_75)"/>
<path d="M366.439 310.63C366.611 309.911 367.02 309.27 367.601 308.812C368.181 308.354 368.9 308.104 369.639 308.104C370.379 308.104 371.097 308.354 371.678 308.812C372.258 309.27 372.667 309.911 372.839 310.63L375.559 321.93C375.703 322.518 376.005 323.055 376.434 323.482C376.863 323.909 377.401 324.209 377.989 324.35L389.279 327.08C389.994 327.256 390.629 327.666 391.083 328.245C391.538 328.824 391.784 329.539 391.784 330.275C391.784 331.011 391.538 331.726 391.083 332.305C390.629 332.884 389.994 333.294 389.279 333.47L377.999 336.2C377.41 336.343 376.872 336.645 376.443 337.074C376.014 337.502 375.712 338.041 375.569 338.63L372.849 349.92C372.677 350.639 372.268 351.28 371.688 351.738C371.107 352.196 370.389 352.446 369.649 352.446C368.91 352.446 368.191 352.196 367.611 351.738C367.03 351.28 366.621 350.639 366.449 349.92L363.719 338.63C363.58 338.041 363.281 337.501 362.853 337.072C362.426 336.643 361.888 336.341 361.299 336.2L349.999 333.47C349.284 333.294 348.649 332.884 348.195 332.305C347.741 331.726 347.494 331.011 347.494 330.275C347.494 329.539 347.741 328.824 348.195 328.245C348.649 327.666 349.284 327.256 349.999 327.08L361.289 324.35C361.877 324.211 362.415 323.91 362.842 323.483C363.27 323.056 363.57 322.518 363.709 321.93L366.439 310.63Z" fill="url(#paint13_linear_292_75)"/>
<path fill-rule="evenodd" clip-rule="evenodd" d="M67 117.37C68.3489 117.37 69.6674 116.97 70.789 116.221C71.9105 115.471 72.7847 114.406 73.3009 113.16C73.817 111.914 73.9521 110.542 73.689 109.22C73.4258 107.897 72.7763 106.681 71.8225 105.728C70.8687 104.774 69.6535 104.124 68.3305 103.861C67.0076 103.598 65.6363 103.733 64.3901 104.249C63.1439 104.765 62.0788 105.639 61.3294 106.761C60.58 107.883 60.18 109.201 60.18 110.55C60.18 112.359 60.8985 114.093 62.1775 115.372C63.4565 116.651 65.1912 117.37 67 117.37V117.37ZM67 122.49C69.3589 122.478 71.6615 121.768 73.6171 120.449C75.5727 119.13 77.0937 117.261 77.9883 115.078C78.8828 112.895 79.1107 110.496 78.6432 108.184C78.1758 105.872 77.0339 103.75 75.3617 102.086C73.6895 100.422 71.5619 99.2911 69.2474 98.8352C66.9329 98.3794 64.5353 98.6193 62.357 99.5248C60.1788 100.43 58.3175 101.961 57.0082 103.923C55.6988 105.885 55 108.191 55 110.55C55 112.123 55.3108 113.681 55.9146 115.133C56.5184 116.586 57.4032 117.905 58.5183 119.014C59.6334 120.124 60.9568 121.002 62.4123 121.598C63.8679 122.195 65.427 122.498 67 122.49V122.49Z" fill="url(#paint14_linear_292_75)"/>
<path d="M39.3796 292.78C39.2594 292.313 39.2644 291.823 39.3941 291.359C39.5239 290.894 39.7738 290.473 40.1187 290.136C40.4636 289.799 40.8912 289.559 41.3584 289.441C41.8256 289.322 42.3158 289.329 42.7796 289.46L56.4896 293.32C56.9527 293.45 57.3734 293.7 57.7092 294.045C58.0451 294.389 58.2843 294.816 58.4029 295.282C58.5215 295.748 58.5152 296.238 58.3848 296.701C58.2543 297.164 58.0042 297.584 57.6596 297.92L47.4696 307.86C47.1257 308.196 46.6994 308.436 46.2334 308.555C45.7674 308.674 45.2783 308.669 44.8151 308.539C44.352 308.41 43.9311 308.16 43.5949 307.816C43.2586 307.472 43.0189 307.046 42.8996 306.58L39.3796 292.78Z" fill="url(#paint15_linear_292_75)"/>
<path d="M394.221 245.77C394.687 245.652 395.176 245.659 395.638 245.789C396.101 245.92 396.521 246.17 396.857 246.515C397.192 246.859 397.431 247.286 397.549 247.752C397.668 248.218 397.661 248.707 397.531 249.17L393.661 262.87C393.53 263.333 393.28 263.754 392.936 264.09C392.591 264.425 392.165 264.665 391.698 264.783C391.232 264.902 390.743 264.896 390.28 264.765C389.817 264.635 389.396 264.385 389.061 264.04L379.121 253.84C378.784 253.495 378.545 253.068 378.426 252.602C378.308 252.135 378.314 251.646 378.445 251.182C378.576 250.719 378.826 250.298 379.171 249.962C379.516 249.627 379.944 249.388 380.411 249.27L394.221 245.77Z" fill="url(#paint16_linear_292_75)"/>
<path fill-rule="evenodd" clip-rule="evenodd" d="M349.469 102.73C350.556 102.734 351.619 102.415 352.524 101.815C353.43 101.214 354.137 100.358 354.555 99.3548C354.974 98.352 355.085 97.2475 354.876 96.1813C354.666 95.115 354.145 94.1349 353.378 93.3651C352.611 92.5953 351.633 92.0705 350.567 91.857C349.502 91.6435 348.397 91.7511 347.393 92.166C346.388 92.581 345.53 93.2846 344.926 94.1879C344.321 95.0911 343.999 96.1533 343.999 97.24C343.999 98.6926 344.575 100.086 345.6 101.115C346.625 102.144 348.016 102.725 349.469 102.73V102.73ZM349.469 106.84C351.368 106.842 353.225 106.281 354.805 105.227C356.385 104.173 357.617 102.675 358.345 100.921C359.073 99.1667 359.265 97.2362 358.896 95.3733C358.526 93.5104 357.613 91.7989 356.271 90.4553C354.928 89.1117 353.218 88.1964 351.355 87.8252C349.493 87.454 347.562 87.6435 345.807 88.3698C344.053 89.0961 342.553 90.3266 341.497 91.9055C340.442 93.4844 339.879 95.3409 339.879 97.24C339.879 99.7844 340.889 102.225 342.687 104.025C344.485 105.825 346.925 106.837 349.469 106.84V106.84Z" fill="url(#paint17_linear_292_75)"/>
<path d="M69.879 178.43H345.359C346.695 178.43 348.019 178.693 349.253 179.205C350.488 179.717 351.609 180.467 352.554 181.412C353.498 182.358 354.247 183.48 354.758 184.715C355.268 185.95 355.53 187.274 355.529 188.61V188.61C355.529 191.307 354.458 193.894 352.55 195.801C350.643 197.709 348.056 198.78 345.359 198.78H69.879C67.1817 198.78 64.595 197.709 62.6877 195.801C60.7805 193.894 59.709 191.307 59.709 188.61V188.61C59.7077 187.274 59.9698 185.95 60.4803 184.715C60.9908 183.48 61.7397 182.358 62.6842 181.412C63.6287 180.467 64.7503 179.717 65.9848 179.205C67.2193 178.693 68.5426 178.43 69.879 178.43V178.43Z" fill="url(#paint18_linear_292_75)"/>
<path d="M134.999 25.21C132.299 35.99 140.999 58.63 154.499 60.43C179.429 63.75 174.849 34.6 159.979 40.08C142.279 46.6 159.979 74.49 184.239 80.77" stroke="#D87D4A" stroke-width="1.57" stroke-linecap="round" stroke-linejoin="round" stroke-dasharray="6.26 6.26"/>
<path d="M276.7 22.49C291.52 51.32 252.27 82.1 241.4 87.8" stroke="#D87D4A" stroke-width="1.57" stroke-linecap="round" stroke-linejoin="round" stroke-dasharray="6.26 6.26"/>
<path d="M262.511 415.35C268.98 415.35 275.304 413.432 280.683 409.837C286.063 406.243 290.255 401.135 292.731 395.158C295.207 389.181 295.854 382.604 294.592 376.259C293.33 369.913 290.215 364.085 285.64 359.511C281.066 354.936 275.237 351.821 268.892 350.558C262.547 349.296 255.97 349.944 249.993 352.42C244.016 354.896 238.908 359.088 235.313 364.467C231.719 369.846 229.801 376.171 229.801 382.64C229.801 391.315 233.247 399.635 239.381 405.769C245.516 411.904 253.836 415.35 262.511 415.35V415.35Z" fill="#DF8A5A"/>
<path d="M262.4 399.13C265.654 399.138 268.836 398.18 271.546 396.378C274.255 394.576 276.368 392.011 277.618 389.007C278.868 386.003 279.199 382.696 278.568 379.504C277.938 376.312 276.374 373.379 274.075 371.076C271.777 368.773 268.847 367.204 265.656 366.568C262.465 365.931 259.157 366.256 256.151 367.5C253.145 368.745 250.576 370.854 248.769 373.56C246.962 376.265 245.998 379.446 246 382.7C246.003 387.052 247.73 391.224 250.805 394.304C253.879 397.384 258.049 399.119 262.4 399.13V399.13Z" fill="url(#paint19_linear_292_75)"/>
</g>
<defs>
<linearGradient id="paint0_linear_292_75" x1="209.679" y1="-11.51" x2="213.359" y2="618.98" gradientUnits="userSpaceOnUse">
<stop stop-color="white" stop-opacity="0"/>
<stop offset="1" stop-color="#FFB48A"/>
</linearGradient>
<linearGradient id="paint1_linear_292_75" x1="109.05" y1="229.99" x2="196" y2="299" gradientUnits="userSpaceOnUse">
<stop stop-color="white"/>
<stop offset="1" stop-color="#E8AA88"/>
</linearGradient>
<linearGradient id="paint2_linear_292_75" x1="476.97" y1="191.83" x2="313.4" y2="194.88" gradientUnits="userSpaceOnUse">
<stop stop-color="white"/>
<stop offset="1" stop-color="#FDC3A2"/>
</linearGradient>
<linearGradient id="paint3_linear_292_75" x1="118.6" y1="107.32" x2="317.23" y2="115.39" gradientUnits="userSpaceOnUse">
<stop stop-color="#F9B48D"/>
<stop offset="1" stop-color="#CB7341"/>
</linearGradient>
<linearGradient id="paint4_linear_292_75" x1="171.679" y1="90.78" x2="171.679" y2="127.14" gradientUnits="userSpaceOnUse">
<stop stop-color="#FFDCC9"/>
<stop offset="1" stop-color="#EFC5AD"/>
</linearGradient>
<linearGradient id="paint5_linear_292_75" x1="278.96" y1="90.78" x2="278.96" y2="127.14" gradientUnits="userSpaceOnUse">
<stop stop-color="#F5BB9A"/>
<stop offset="1" stop-color="#E39C75"/>
</linearGradient>
<linearGradient id="paint6_linear_292_75" x1="181.72" y1="186.06" x2="354.84" y2="188.79" gradientUnits="userSpaceOnUse">
<stop offset="0.39" stop-color="#F0AA83"/>
<stop offset="1" stop-color="#FFF1E9"/>
</linearGradient>
<linearGradient id="paint7_linear_292_75" x1="155.29" y1="180.9" x2="220.32" y2="197.84" gradientUnits="userSpaceOnUse">
<stop stop-color="#FFEDE2"/>
<stop offset="1" stop-color="#FFD1B8"/>
</linearGradient>
<linearGradient id="paint8_linear_292_75" x1="68.5295" y1="252.84" x2="348.32" y2="256.18" gradientUnits="userSpaceOnUse">
<stop stop-color="#EBBDA4"/>
<stop offset="1" stop-color="#D87D4A"/>
</linearGradient>
<linearGradient id="paint9_linear_292_75" x1="140.25" y1="382.42" x2="187.74" y2="383.17" gradientUnits="userSpaceOnUse">
<stop stop-color="white"/>
<stop offset="1" stop-color="#DF8A5A"/>
</linearGradient>
<linearGradient id="paint10_linear_292_75" x1="262.019" y1="10.36" x2="284.729" y2="10.52" gradientUnits="userSpaceOnUse">
<stop stop-color="#FBB58E"/>
<stop offset="1" stop-color="#E38C5B"/>
</linearGradient>
<linearGradient id="paint11_linear_292_75" x1="129.921" y1="10.24" x2="144.481" y2="25.91" gradientUnits="userSpaceOnUse">
<stop stop-color="#F2B08B"/>
<stop offset="1" stop-color="#E89465"/>
</linearGradient>
<linearGradient id="paint12_linear_292_75" x1="-10.9101" y1="217.36" x2="55.2899" y2="217.79" gradientUnits="userSpaceOnUse">
<stop stop-color="#F7C4A7"/>
<stop offset="1" stop-color="#DD9064"/>
</linearGradient>
<linearGradient id="paint13_linear_292_75" x1="336.559" y1="330.06" x2="402.769" y2="330.49" gradientUnits="userSpaceOnUse">
<stop stop-color="#F3C2A6"/>
<stop offset="1" stop-color="#DC8D61"/>
</linearGradient>
<linearGradient id="paint14_linear_292_75" x1="54.94" y1="110.47" x2="78.98" y2="110.62" gradientUnits="userSpaceOnUse">
<stop stop-color="#FFCAAC"/>
<stop offset="1" stop-color="#E08E60"/>
</linearGradient>
<linearGradient id="paint15_linear_292_75" x1="36.4496" y1="306.08" x2="56.3096" y2="286.94" gradientUnits="userSpaceOnUse">
<stop stop-color="#F9C2A3"/>
<stop offset="1" stop-color="#E49467"/>
</linearGradient>
<linearGradient id="paint16_linear_292_75" x1="380.921" y1="242.81" x2="400.031" y2="262.7" gradientUnits="userSpaceOnUse">
<stop stop-color="#F5B793"/>
<stop offset="1" stop-color="#E69466"/>
</linearGradient>
<linearGradient id="paint17_linear_292_75" x1="339.829" y1="97.18" x2="359.139" y2="97.3" gradientUnits="userSpaceOnUse">
<stop stop-color="#FFCBAE"/>
<stop offset="1" stop-color="#E69365"/>
</linearGradient>
<linearGradient id="paint18_linear_292_75" x1="364.119" y1="216.17" x2="50.239" y2="160.88" gradientUnits="userSpaceOnUse">
<stop stop-color="#D87D4A"/>
<stop offset="1" stop-color="#EB9565"/>
</linearGradient>
<linearGradient id="paint19_linear_292_75" x1="245.12" y1="382.42" x2="292.6" y2="383.17" gradientUnits="userSpaceOnUse">
<stop stop-color="white"/>
<stop offset="1" stop-color="#FFCDB0"/>
</linearGradient>
<clipPath id="clip0_292_75">
<rect width="420.47" height="415.35" fill="white"/>
</clipPath>
</defs>
</svg>
